<?xml version="1.0" encoding="utf-8"?>
<!-- Generator: Adobe Illustrator 28.0.0, SVG Export Plug-In . SVG Version: 6.00 Build 0)  -->
<svg version="1.1" id="レイヤー_1" xmlns="http://www.w3.org/2000/svg" xmlns:xlink="http://www.w3.org/1999/xlink" x="0px"
	 y="0px" viewBox="0 0 571.03 138.05" style="enable-background:new 0 0 571.03 138.05;" xml:space="preserve">
<style type="text/css">
	.st0{fill:#FFFFFF;}
	.st1{fill:#294052;}
</style>
<path class="st0" d="M128.51,77.86c-7.82-0.1-15.54-0.2-22.56-0.5c-7.12-0.3-10.83-4.81-11.03-10.13c-0.1-3.11-0.2-6.22-0.2-9.32
	c0-3.01,0.1-5.92,0.2-8.62c0.2-4.31,3.01-10.13,10.83-10.33c6.92-0.2,14.74-0.3,22.76-0.3V24.42c0-2.91,2.51-4.41,5.01-4.41
	c2.51,0,5.11,1.5,5.11,4.41v14.24c8.12,0,16.14,0.1,23.36,0.3c5.92,0.2,10.03,5.41,10.33,9.52c0.2,2.41,0.3,5.41,0.3,8.52
	c0,3.51-0.1,7.12-0.3,10.13c-0.2,5.01-4.31,9.93-10.83,10.23c-7.32,0.3-15.04,0.5-22.86,0.5v26.77c0,2.71-2.51,4.11-5.11,4.11
	c-2.51,0-5.01-1.4-5.01-4.11V77.86z M128.51,47.68c-7.02,0-13.64,0.2-19.05,0.3c-3.21,0.1-4.81,2.21-4.91,4.21
	c-0.1,1.91-0.2,4.31-0.2,6.62c0,6.32,0,9.42,5.21,9.63c5.61,0.3,12.13,0.5,18.95,0.5V47.68z M138.63,68.84
	c6.72-0.1,13.33-0.2,19.25-0.4c4.81-0.2,5.01-2.41,5.01-10.23c0-8.12-0.2-10.13-5.11-10.23c-5.51-0.2-12.23-0.3-19.15-0.3V68.84z"/>
<path class="st0" d="M186.68,49.29c-2.91,0-4.31-2.11-4.31-4.21c0-2.01,1.4-4.11,4.31-4.11h12.13V29.34c0-3.11,2.41-4.61,4.91-4.61
	c2.41,0,4.91,1.5,4.91,4.61v11.63l12.83,0.1V24.12c0-3.31,2.41-4.91,4.81-4.91c2.51,0,5.01,1.7,5.01,4.91v3.11h21.15
	c2.71,0,4.01,2.01,4.01,4.11c0,2.01-1.3,4.11-4.01,4.11H231.3v5.61l33.69-0.1c2.61,0,3.91,2.11,3.91,4.11c0,2.11-1.3,4.21-3.91,4.21
	H186.68z M198.11,56.11c-0.2,6.82-0.3,16.04-0.3,24.16c0,4.31,0,8.42,0.1,11.63c0.1,3.81,1.3,5.92,5.72,6.12
	c5.51,0.2,13.54,0.3,21.46,0.3c7.92,0,15.74-0.1,21.06-0.3c3.71-0.1,5.81-2.21,6.02-5.92c0.2-4.11,0.2-9.22,0.2-14.44
	c0-7.32-0.1-15.04-0.4-21.25c0-0.1,0-0.2,0-0.3c0-2.81,2.21-4.21,4.51-4.21c2.41,0,4.81,1.5,4.91,4.51c0.2,5.51,0.3,14.84,0.3,23.86
	c0,4.71,0,9.43-0.1,13.33c-0.2,8.22-6.12,12.43-13.03,12.63c-6.52,0.2-15.54,0.3-24.46,0.3c-8.82,0-17.45-0.1-23.26-0.3
	c-7.62-0.3-11.83-4.51-11.93-12.53c-0.1-4.61-0.1-9.63-0.1-14.94c0-7.52,0.1-15.34,0.3-22.66c0.1-3.11,2.21-4.51,4.41-4.51
	c2.31,0,4.61,1.5,4.61,4.41V56.11z M229.9,92.3c0,2.41-2.11,3.71-4.21,3.71c-2.01,0-4.11-1.2-4.11-3.71v-0.1l0.3-12.63
	c-6.42,7.82-14.84,14.04-17.24,14.04c-2.31,0-4.21-2.21-4.21-4.41c0-1.1,0.5-2.31,1.9-3.11c6.62-3.91,11.93-8.12,16.54-13.33
	l-14.64,0.4h-0.1c-2.41,0-3.61-1.9-3.61-3.81c0-1.8,1.2-3.61,3.61-3.61h0.1l7.42,0.1c-1.2-2.11-2.91-3.91-4.61-5.81
	c-0.6-0.7-0.9-1.5-0.9-2.31c0-1.9,1.8-3.61,3.71-3.61c3.41,0,9.32,8.82,9.32,11.23c0,0.2,0,0.4,0,0.6h2.71l-0.3-10.63
	c-0.1-3.01,2.21-4.11,4.11-4.11c2.11,0,4.21,1.4,4.21,3.91c0,0.1,0,0.1,0,0.2l-0.4,10.63h2.91c1.7-3.11,3.51-6.82,4.51-9.63
	c0.6-1.6,1.8-2.31,3.11-2.31c2.11,0,4.41,1.9,4.41,4.21c0,1.9-3.71,7.32-3.91,7.62l5.61-0.1h0.1c2.31,0,3.51,2.01,3.51,3.91
	c0,1.8-1.1,3.51-3.41,3.51c-0.1,0-0.1,0-0.2,0l-16.74-0.5l0.1,4.01c0.7-0.7,1.7-1.1,2.71-1.1c1.9,0,15.94,5.71,15.94,11.53
	c0,2.31-1.8,4.41-3.91,4.41c-0.9,0-2.01-0.4-2.91-1.5c-3.21-3.51-7.02-6.12-10.83-8.22c-0.3-0.2-0.7-0.4-0.9-0.6l0.3,11.03V92.3z"/>
<path class="st0" d="M306.9,104.63c0,2.81-2.41,4.21-4.91,4.21s-4.91-1.4-4.91-4.21v-0.1l0.4-31.88
	c-3.41,5.41-7.42,10.43-11.03,14.34c-1.2,1.2-2.51,1.8-3.81,1.8c-2.71,0-5.11-2.31-5.11-4.71c0-1.2,0.5-2.31,1.7-3.41
	c5.41-4.81,13.54-14.64,18.35-23.86l-0.1-2.11L285.75,55h-0.1c-3.01,0-4.41-2.11-4.41-4.31c0-2.21,1.5-4.41,4.51-4.41h11.63
	l-0.2-9.93c-1.9,0.3-8.62,1.5-9.73,1.5c-3.01,0-4.61-2.31-4.61-4.51c0-2.01,1.3-4.01,4.01-4.31c9.42-0.9,16.24-2.51,24.86-5.92
	c0.6-0.2,1.1-0.3,1.6-0.3c2.61,0,4.51,2.21,4.51,4.61c0,3.51-3.81,4.81-11.03,6.82c-0.1,2.11-0.1,6.62-0.2,12.03h10.23
	c3.01,0,4.51,2.21,4.51,4.41c0,2.21-1.5,4.31-4.41,4.31h-0.1l-10.43-0.2v4.91c0.4-0.1,0.7-0.1,1-0.1c3.71,0,11.93,7.22,12.43,7.82
	c1,1.1,1.4,2.21,1.4,3.41c0,2.51-2.11,4.81-4.41,4.81c-1.1,0-2.21-0.5-3.21-1.7c-1.7-2.21-4.71-4.71-7.22-6.52
	c0.1,15.14,0.5,37.1,0.5,37.1V104.63z M345.7,81.87l-23.96,6.72c-0.6,0.2-1.1,0.2-1.6,0.2c-2.71,0-4.21-2.11-4.21-4.31
	c0-1.8,1.1-3.61,3.41-4.31l26.37-7.42l-0.2-47.52c0-2.91,2.31-4.31,4.71-4.31s4.91,1.5,4.91,4.31l-0.2,45.02l9.83-2.81
	c0.5-0.1,1-0.2,1.4-0.2c2.61,0,4.31,2.31,4.31,4.51c0,1.7-1,3.41-3.21,4.01l-12.33,3.41l0.2,25.77c0,2.61-2.41,3.91-4.81,3.91
	c-2.41,0-4.81-1.3-4.81-3.91L345.7,81.87z M332.47,66.63c-2.91-3.01-7.02-5.71-9.22-7.12c-1.4-0.8-2.01-2.01-2.01-3.11
	c0-2.01,2.01-4.01,4.91-4.01c3.51,0,10.73,5.21,12.53,7.02c1.2,1.2,1.7,2.51,1.7,3.81c0,2.71-2.11,5.01-4.61,5.01
	C334.67,68.24,333.57,67.74,332.47,66.63z M333.27,45.38c-2.51-3.31-6.32-6.52-8.62-8.12c-1.1-0.8-1.6-1.7-1.6-2.61
	c0-2.11,2.41-4.21,5.01-4.21c2.71,0,13.33,6.82,13.33,11.83c0,2.81-2.21,5.11-4.61,5.11C335.58,47.38,334.37,46.78,333.27,45.38z"/>
<path class="st0" d="M461.4,96.01c3.01,0,4.41,2.31,4.41,4.51c0,2.31-1.4,4.61-4.31,4.61c-11.83,0.3-23.66,0.4-35.39,0.4
	c-9.52,0-18.95-0.1-27.97-0.3c-8.72-0.2-12.93-4.71-13.23-12.13c-0.3-7.52-0.4-16.04-0.4-24.86c0-10.73,0.2-21.66,0.4-31.48
	c0.1-6.42,4.91-10.83,12.43-10.93c8.72-0.2,19.35-0.2,30.08-0.2c10.83,0,21.76,0,31.08,0.2c3.01,0,4.41,2.21,4.41,4.41
	c0,2.11-1.4,4.31-4.41,4.31c-12.93-0.1-28.57-0.2-41.51-0.2c-5.81,0-11.13,0-15.44,0.1c-5.72,0.1-7.22,1.7-7.32,6.82
	c-0.2,8.12-0.3,16.44-0.3,24.56c0,8.12,0.1,16.14,0.3,23.66c0.2,5.71,2.21,6.62,8.32,6.82c6.02,0.1,12.73,0.2,19.85,0.2
	c12.23,0,25.67-0.2,38.9-0.5H461.4z M454.28,68.34l-20.25-0.3c4.71,7.62,12.73,12.93,20.55,15.64c2.51,0.9,3.61,2.81,3.61,4.71
	c0,2.41-1.8,4.71-4.81,4.71c-5.61,0-19.15-9.22-25.17-20.05c-8.82,18.25-26.47,20.55-26.77,20.55c-2.71,0-4.31-2.31-4.31-4.51
	c0-1.8,1-3.61,3.61-4.31c11.83-3.01,17.65-9.72,20.35-16.84l-18.95,0.4h-0.1c-2.71,0-4.01-1.9-4.01-3.91c0-2.01,1.4-4.11,4.11-4.11
	h20.75l0.3-3.01c0.1-2.01,0.1-4.41,0.1-6.82h-9.93c-4.91,7.32-6.82,7.82-8.52,7.82c-2.41,0-4.71-1.7-4.71-3.81
	c0-0.8,0.3-1.6,1.1-2.41c4.51-4.71,6.82-8.52,9.32-14.74c0.7-1.6,2.01-2.21,3.51-2.21c2.41,0,4.91,1.7,4.91,4.01
	c0,0.2,0,0.6-1.2,3.41h30.18c2.61,0,3.91,2.01,3.91,3.91c0,2.01-1.3,4.01-3.91,4.01h-15.34c0,1.2-0.1,7.42-0.5,9.83h22.16
	c2.71,0,4.01,2.01,4.01,4.01c0,2.01-1.3,4.01-3.91,4.01H454.28z"/>
<path class="st0" d="M484.67,107.03c-2.51,0-4.91-1.5-4.91-4.41c0-18.25,0.1-51.23,0.5-72.39c0.2-9.52,5.51-9.52,14.54-9.52
	c1.9,0,3.81,0,5.51,0.1c5.72,0.2,8.62,3.31,8.62,7.62c0,1.9-0.6,4.91-5.92,16.34c-0.5,1-0.7,1.9-0.7,2.81c0,1.3,0.5,2.61,1.6,4.01
	c3.51,4.41,5.41,8.72,5.41,15.54c0,8.72-5.51,15.24-12.63,15.24c-1.7,0-6.92-0.4-6.92-4.81c0-2.21,1.5-4.31,3.61-4.31
	c0.4,0,0.7,0.1,1.1,0.2c0.5,0.1,0.9,0.2,1.4,0.2c2.21,0,4.71-1.9,4.71-7.22c0-4.61-1.4-8.22-3.91-11.73
	c-1.9-2.71-2.71-4.91-2.71-7.12c0-1.8,0.5-3.61,1.4-5.72c2.21-4.81,4.01-10.83,4.01-11.53c0-1.2-0.5-2.01-4.11-2.01
	c-3.71,0-5.72,0.1-5.72,3.51c-0.1,9.32-0.2,21.15-0.2,33.59c0,31.28,0,35.69,0,37.2C489.38,105.53,486.98,107.03,484.67,107.03z
	 M499.71,101.82c0-1.9,1.2-3.91,3.81-4.81c13.44-4.81,17.35-12.73,18.95-23.26c0.4-2.71,2.41-3.91,4.41-3.91
	c2.51,0,5.11,1.8,5.11,4.61c0,0.2,0,0.5-0.1,0.8c-4.71,27.07-25.97,31.18-27.27,31.18C501.51,106.43,499.71,104.22,499.71,101.82z
	 M553.85,46.47v-4.11c0-3.61-1.4-4.31-4.61-4.41c-4.01-0.1-8.82-0.2-13.43-0.2c-4.71,0-9.32,0.1-12.93,0.2
	c-3.71,0.1-4.81,1.1-4.81,4.11v4.31c0,2.81-2.31,4.21-4.61,4.21c-2.31,0-4.61-1.4-4.61-4.21c0-1.3,0-3.21,0-5.01
	c0-4.61,0.2-10.93,10.23-11.23c3.51-0.1,7.32-0.2,11.23-0.2l-0.1-7.12v-0.1c0-3.11,2.51-4.71,5.11-4.71c2.51,0,5.11,1.6,5.11,4.71
	v0.1l-0.1,7.12c4.41,0,8.82,0,12.73,0.2c6.52,0.3,10.33,3.21,10.33,9.22c0,7.02,0,7.02,0,7.02c-0.2,2.81-2.61,4.31-5.01,4.31
	c-2.31,0-4.51-1.4-4.51-4.11V46.47z M556.16,87.18c0-2.81,2.11-4.01,4.31-4.01c1.6,0,5.11,0.7,5.11,4.81
	c0,14.24-5.41,16.94-16.24,16.94c-10.43,0-13.13-4.31-13.13-11.53c0-3.41,0.1-18.75,0.3-25.37l-22.56,0.2
	c-2.71,0-4.11-2.11-4.11-4.21c0-2.01,1.4-4.11,4.11-4.11h45.52c2.61,0,3.91,2.11,3.91,4.21c0,2.11-1.3,4.11-3.81,4.11h-0.1
	l-13.64-0.2c-0.1,6.02-0.4,17.75-0.4,22.66c0,2.71,0.4,5.21,4.01,5.21c5.61,0,6.72-1.5,6.72-7.62c0-0.3,0-0.7,0-1V87.18z
	 M523.97,52.99c-2.81,0-4.21-2-4.21-4.01c0-2,1.4-4.01,4.21-4.01h24.16c2.61,0,3.91,2.01,3.91,4.01c0,2.01-1.3,4.01-3.91,4.01
	H523.97z"/>
<path class="st0" d="M78.04,34.43c-0.2-6.26-6.12-10.02-12.23-10.29c-6.32-0.27-13.44-0.36-20.65-0.36
	c-8.72,0-17.75,0.18-26.07,0.36C9.56,24.32,5.85,28.89,5.65,36.4c-0.1,4.65-0.2,11.9-0.2,19.42c0,8.59,0.1,17.45,0.3,22.73
	c0,0,0.92,30.3,12.36,33.79s16.56-20.96,21.37-20.42h4.79c4.82-0.54,9.93,23.92,21.37,20.42C76.6,109,77.91,81.11,78,78.74
	c0.01-0.15,0.03-0.3,0.04-0.45c0.2-4.65,0.3-13.42,0.3-22.37C78.34,47.95,78.24,39.8,78.04,34.43z M38.83,82.28
	c-19.45,0-21.46-0.3-21.66-6.92c-0.2-4.61-0.2-11.63-0.2-18.95h21.86V82.28z M38.83,52.29H16.97c0.1-5.72,0.2-11.13,0.3-15.14
	c0.3-6.62,1.8-6.92,21.56-6.92V52.29z M66.51,75.06c-0.2,4.31-2.11,6.82-7.72,6.92c-4.71,0.1-9.93,0.3-15.14,0.3V56.42h23.16
	C66.81,63.43,66.71,70.25,66.51,75.06z M43.65,52.29V30.23c21.15,0,22.66,0,22.86,6.92c0.1,3.91,0.3,9.32,0.3,15.14H43.65z"/>
</svg>
