<?xml version="1.0" encoding="utf-8"?>
<!-- Generator: Adobe Illustrator 27.2.0, SVG Export Plug-In . SVG Version: 6.00 Build 0)  -->
<svg version="1.1" id="レイヤー_1" xmlns="http://www.w3.org/2000/svg" xmlns:xlink="http://www.w3.org/1999/xlink" x="0px"
	 y="0px" viewBox="0 0 678.6 115.2" style="enable-background:new 0 0 678.6 115.2;" xml:space="preserve">
<style type="text/css">
	.st0{fill:#2A6E72;}
	.st1{font-family:'ZenMaruGothic-Medium';}
	.st2{font-size:114.2714px;}
	.st3{font-size:77.3568px;}
</style>
<g>
	<text transform="matrix(1 0 0 1 109.1777 106.9927)"><tspan x="0" y="0" class="st0 st1 st2">あ</tspan><tspan x="114.3" y="-14" class="st0 st1 st3">きおかあるき</tspan></text>
</g>
<g>
	<path class="st0" d="M93.3,76.3c2.9-5.4,4.7-12.6,5-20.6c0.5-17.1-6.4-29.6-15.9-31.4c-9.1-1.8-18.7,6.3-19.3,23.3
		c-0.3,8.8,1.9,18.6,5.3,26.2L93.3,76.3z"/>
	<path class="st0" d="M91.8,85.3c0,0.2,0,0.4-0.1,0.5l-2.1,17.5c-0.8,6.4-6.6,11-13,10.2l-1.6-0.2c-6.4-0.8-11-6.6-10.2-13l2.1-17.5
		c0-0.2,0-0.4,0.1-0.5L91.8,85.3z"/>
	<path class="st0" d="M14,50.1c-2.9-5.4-4.7-12.6-5-20.6C8.5,12.4,15.5-0.1,24.9-1.9c9.1-1.8,18.7,6.3,19.3,23.3
		c0.3,8.8-1.9,18.6-5.3,26.2L14,50.1z"/>
	<path class="st0" d="M15.5,59.2c0,0.2,0,0.4,0.1,0.5l2.1,17.5c0.8,6.4,6.6,11,13,10.2l1.6-0.2c6.4-0.8,11-6.6,10.2-13l-2.1-17.5
		c0-0.2,0-0.4-0.1-0.5L15.5,59.2z"/>
</g>
</svg>
